<svg width="142" height="32" viewBox="0 0 142 32" fill="none" xmlns="http://www.w3.org/2000/svg">
<path d="M30.0471 16C30.0471 24.31 23.3311 31.047 15.0471 31.047C6.76312 31.047 0.0471188 24.31 0.0471185 16C0.0471181 7.69 6.76312 0.952997 15.0471 0.952997C23.3311 0.952996 30.0471 7.689 30.0471 16ZM15.1581 6.747C12.8051 6.719 10.2921 8.079 8.49112 9.868C5.40312 12.989 5.56812 17.426 7.15812 20.792C7.40012 17.894 8.37212 16.212 10.0471 14.55C11.7201 12.854 12.9971 12.321 15.1581 12.32L15.1581 15.219L21.3801 9.645L15.1581 4.072L15.1581 6.747ZM14.9371 25.251C17.2901 25.28 19.8031 23.919 21.6041 22.131C24.6921 19.009 24.5271 14.573 22.9371 11.207C22.6951 14.105 21.7231 15.786 20.0481 17.449C18.3751 19.144 17.0981 19.678 14.9371 19.678L14.9371 16.78L8.71412 22.353L14.9361 27.926L14.9361 25.251L14.9371 25.251Z" fill="#FF3333"/>
<path d="M49.6331 24.26C50.8041 23.727 51.7891 23.004 52.5871 22.09H52.5861L49.5561 19.247C49.1491 19.8028 48.6171 20.255 48.0031 20.567C47.3571 20.905 46.6021 21.075 45.7371 21.075C44.9901 21.075 44.3021 20.939 43.6741 20.669C43.0461 20.398 42.5071 20.021 42.0571 19.539C41.5936 19.0346 41.2344 18.4437 41.0001 17.8C40.7461 17.123 40.6181 16.378 40.6181 15.566C40.6099 14.8168 40.7394 14.0725 41.0001 13.37C41.2398 12.7264 41.6033 12.1359 42.0701 11.632C42.5327 11.1383 43.0919 10.7452 43.7131 10.477C44.3491 10.198 45.0491 10.058 45.8131 10.058C46.5121 10.0586 47.2042 10.1965 47.8501 10.464C48.4919 10.7187 49.0484 11.15 49.4551 11.708L52.4081 8.76302C51.6441 7.90002 50.6471 7.24402 49.4161 6.79602C48.1861 6.34702 46.9341 6.12402 45.6601 6.12402C44.2851 6.12402 43.0031 6.34402 41.8151 6.78402C40.6639 7.20094 39.6076 7.8435 38.7081 8.67402C37.8142 9.51085 37.1071 10.527 36.6331 11.656C36.1321 12.825 35.8821 14.128 35.8821 15.566C35.8821 16.971 36.1281 18.257 36.6201 19.425C37.0877 20.5559 37.7811 21.5795 38.6581 22.433C39.5393 23.2806 40.5829 23.9412 41.7261 24.375C42.9061 24.832 44.1921 25.06 45.5831 25.06C47.1121 25.06 48.4611 24.793 49.6331 24.26Z" fill="#282828"/>
<path fill-rule="evenodd" clip-rule="evenodd" d="M65.6891 21.011C66.0621 20.173 66.2491 19.238 66.2491 18.206C66.2491 17.174 66.0621 16.244 65.6891 15.414C65.3346 14.6112 64.8134 13.893 64.1601 13.307C63.5059 12.7262 62.7451 12.2779 61.9201 11.987C61.0711 11.682 60.1631 11.53 59.1951 11.53C58.2715 11.5255 57.3541 11.6801 56.4831 11.987C55.6558 12.2739 54.894 12.7226 54.2421 13.307C53.5957 13.896 53.0796 14.6137 52.7271 15.414C52.3541 16.243 52.1671 17.174 52.1671 18.206C52.1671 19.238 52.3541 20.173 52.7271 21.011C53.0796 21.8188 53.5958 22.5448 54.2431 23.143C54.8949 23.7366 55.6556 24.1981 56.4831 24.502C57.3411 24.824 58.2451 24.984 59.1951 24.984C60.1252 24.9909 61.0487 24.8275 61.9201 24.502C62.746 24.1942 63.5063 23.7331 64.1611 23.143C64.8146 22.5476 65.3352 21.8212 65.6891 21.011ZM62.0221 17.013C62.1581 17.402 62.2261 17.8 62.2261 18.206H62.2251C62.2251 18.612 62.1621 19.01 62.0351 19.399C61.9071 19.788 61.7161 20.14 61.4621 20.453C61.2071 20.766 60.8931 21.015 60.5191 21.201C60.1461 21.388 59.7131 21.481 59.2211 21.481C58.7281 21.481 58.2961 21.388 57.9221 21.202C57.5491 21.015 57.2341 20.766 56.9801 20.453C56.7251 20.139 56.5341 19.789 56.4071 19.399C56.1519 18.6242 56.1519 17.7879 56.4071 17.013C56.5267 16.6379 56.7167 16.289 56.9671 15.985C57.223 15.6815 57.5398 15.4352 57.8971 15.262C58.2701 15.075 58.7031 14.982 59.1951 14.982C59.6881 14.982 60.1201 15.075 60.4941 15.262C60.8535 15.4373 61.1738 15.6832 61.4361 15.985C61.6946 16.2876 61.8934 16.6364 62.0221 17.013Z" fill="#282828"/>
<path d="M76.1171 17.673V24.578H80.3191V16.759C80.3191 16.133 80.2381 15.507 80.0771 14.881C79.9275 14.2795 79.6589 13.714 79.2871 13.218C78.9036 12.7205 78.4118 12.317 77.8491 12.038C77.2541 11.733 76.5331 11.581 75.6841 11.581C75.2431 11.581 74.8261 11.64 74.4361 11.758C74.0599 11.8705 73.697 12.0238 73.3541 12.215C73.0231 12.402 72.7341 12.626 72.4891 12.888C72.2421 13.15 72.0431 13.417 71.8891 13.688H71.8391V11.936H67.7901V24.578H71.9921V17.724C71.9921 17.368 72.0381 17.026 72.1321 16.696C72.2181 16.3811 72.3604 16.0843 72.5521 15.82C72.7391 15.566 72.9721 15.367 73.2521 15.223C73.5321 15.08 73.8591 15.008 74.2321 15.008C74.6061 15.008 74.9161 15.08 75.1621 15.223C75.4031 15.3618 75.6014 15.5642 75.7351 15.808C75.8777 16.0737 75.9763 16.3608 76.0271 16.658C76.0871 16.979 76.1171 17.318 76.1171 17.673Z" fill="#282828"/>
<path d="M85.7051 24.578H90.2121L95.2031 11.936H90.7471L88.0731 20.136H87.9971L85.3231 11.936H80.7141L85.7051 24.578Z" fill="#282828"/>
<path fill-rule="evenodd" clip-rule="evenodd" d="M108.28 18.917V18.41L108.279 18.409C108.279 17.326 108.123 16.362 107.809 15.515C107.495 14.669 107.057 13.95 106.497 13.358C105.934 12.7638 105.248 12.3003 104.486 12C103.704 11.687 102.847 11.53 101.914 11.53C100.992 11.5216 100.076 11.685 99.2141 12.012C98.4097 12.3164 97.674 12.7781 97.0501 13.37C96.4253 13.9741 95.9315 14.7001 95.5991 15.503C95.2421 16.34 95.0641 17.275 95.0641 18.308C95.0641 19.374 95.2461 20.321 95.6111 21.151C95.9544 21.9497 96.4672 22.6642 97.1141 23.245C97.7635 23.8196 98.5205 24.2598 99.3411 24.54C100.191 24.836 101.091 24.984 102.041 24.984C103.331 24.984 104.464 24.751 105.441 24.286C106.39 23.8436 107.203 23.1555 107.796 22.293L104.893 20.465C104.595 20.8621 104.212 21.1874 103.772 21.417C103.314 21.663 102.754 21.785 102.092 21.785C101.718 21.785 101.358 21.726 101.01 21.608C100.662 21.489 100.348 21.324 100.068 21.113C99.7871 20.901 99.5581 20.652 99.3801 20.364C99.2021 20.076 99.0961 19.755 99.0621 19.399H108.254C108.271 19.247 108.28 19.087 108.28 18.917ZM103.811 15.11C104.227 15.583 104.435 16.15 104.435 16.81H99.0621C99.0796 16.4863 99.1666 16.1702 99.3171 15.883C99.4691 15.587 99.6731 15.329 99.9271 15.109C100.182 14.889 100.479 14.716 100.819 14.588C101.159 14.462 101.532 14.398 101.939 14.398C102.771 14.398 103.395 14.635 103.811 15.11Z" fill="#282828"/>
<path d="M117.448 15.236C117.633 15.2544 117.816 15.2885 117.995 15.338L118.173 11.682C118.072 11.648 117.94 11.623 117.779 11.606C117.617 11.59 117.452 11.58 117.282 11.58C116.501 11.58 115.814 11.784 115.22 12.19C114.633 12.5872 114.159 13.1294 113.844 13.764H113.793V11.936H109.77V24.578H113.946V18.079C113.954 17.7772 114.006 17.4781 114.099 17.191C114.201 16.852 114.366 16.539 114.596 16.252C114.847 15.9459 115.159 15.695 115.512 15.515C115.894 15.312 116.366 15.211 116.926 15.211C117.1 15.2111 117.275 15.2195 117.448 15.236Z" fill="#282828"/>
<path d="M122.974 19.882V15.058H125.954V11.936H122.974V8.61102H118.874V11.936L118.202 11.885V15.347L118.899 15.058V20.39C118.892 21.0109 118.97 21.6299 119.129 22.23C119.268 22.7545 119.525 23.2404 119.88 23.651C120.228 24.049 120.691 24.353 121.267 24.565C121.845 24.777 122.558 24.882 123.407 24.882C123.851 24.8819 124.294 24.8437 124.731 24.768C125.172 24.692 125.537 24.603 125.826 24.502L125.775 21.455C125.623 21.523 125.431 21.574 125.203 21.608C124.973 21.642 124.757 21.658 124.553 21.658C123.958 21.658 123.547 21.51 123.318 21.214C123.089 20.918 122.974 20.474 122.974 19.882Z" fill="#282828"/>
<path fill-rule="evenodd" clip-rule="evenodd" d="M140.522 21.4811C140.895 20.6431 141.082 19.7081 141.082 18.6761C141.082 17.6441 140.895 16.7141 140.521 15.8841C140.167 15.0814 139.646 14.3632 138.993 13.7771C138.339 13.1963 137.578 12.748 136.753 12.4571C135.904 12.1521 134.996 12.0001 134.028 12.0001C133.104 11.9955 132.187 12.1501 131.316 12.4571C130.489 12.7439 129.727 13.1927 129.075 13.7771C128.429 14.3661 127.913 15.0838 127.56 15.8841C127.186 16.7131 127 17.6441 127 18.6761C127 19.7081 127.186 20.6431 127.56 21.4811C127.913 22.2889 128.429 23.0149 129.076 23.6131C129.728 24.2066 130.489 24.6681 131.316 24.9721C132.173 25.2941 133.078 25.4541 134.028 25.4541C134.958 25.4609 135.882 25.2976 136.753 24.9721C137.579 24.6643 138.339 24.2032 138.994 23.6131C139.648 23.0177 140.168 22.2912 140.522 21.4811ZM136.855 17.4831C136.99 17.8721 137.058 18.2701 137.058 18.6761C137.058 19.0821 136.995 19.4801 136.867 19.8691C136.74 20.2581 136.549 20.6101 136.294 20.9231C136.04 21.2361 135.726 21.4851 135.353 21.6711C134.979 21.8581 134.546 21.9511 134.053 21.9511C133.561 21.9511 133.128 21.8581 132.755 21.6721C132.381 21.4851 132.067 21.2361 131.813 20.9231C131.558 20.6091 131.367 20.2591 131.239 19.8691C130.984 19.0942 130.984 18.258 131.239 17.4831C131.359 17.1079 131.549 16.759 131.799 16.4551C132.055 16.1516 132.372 15.9052 132.729 15.7321C133.103 15.5451 133.536 15.4521 134.028 15.4521C134.52 15.4521 134.953 15.5451 135.327 15.7321C135.686 15.9074 136.007 16.1533 136.269 16.4551C136.527 16.7577 136.726 17.1065 136.855 17.4831Z" fill="#FF3333"/>
</svg>
